{"title":"Sucker Punch 2011 DVDrip English Klam","uid":6602001,"size":1667515415,"categoryP":"video","categoryS":"movies","magnet":"?xt=urn:btih:db2f3540b7d896b4cb5e7582aada80c413cb3fff&amp;dn=Sucker+Punch+2011+DVDrip+English+Klam&amp;tr=udp%3A%2F%2Ftracker.openbittorrent.com%3A80&amp;tr=udp%3A%2F%2Fopen.demonii.com%3A1337&amp;tr=udp%3A%2F%2Ftracker.coppersurfer.tk%3A6969&amp;tr=udp%3A%2F%2Fexodus.desync.com%3A6969","seeders":0,"leechers":1,"uploader":"Klambake","files":-1,"time":1313241851,"description":"With: Emily Browning, Abbie Cornish en Jena Malone\n\n'Sucker Punch' speelt zich af in de jaren '50. Baby Doll (Emily Browning) wordt door haar kwaadaardige stiefvader naar een psychiatrische inrichting gestuurd. Zijn plan is om binnen vijf dagen lobotomie op haar toe te passen. Door de trauma's die ze er oploopt creÃƒÂ«ert ze haar eigen wereld waarin alles mogelijk is. Ze raakt geÃƒÂ¯nspireerd door dat wat er zich afspeelt en beraamt een plan om te ontsnappen.\n\nA young girl is institutionalized by her abusive stepfather. Retreating to an alternative reality as a coping strategy, she envisions a plan which will help her escape from the mental facility. \n\n------------------ Dutch Friends ------------------\nYou can find my Friends at: http://www.Film-Test.nl \n------ They got my dutchs subs ---- and more ------\n\nGeneral:\n\nComplete name                    : Sucker Punch\\Sucker Punch.avi\nFormat                           : AVI\nFormat/Info                      : Audio Video Interleave\nFile size                        : 1.55 GiB\nDuration                         : 1h 45mn\nOverall bit rate                 : 2 112 Kbps\n\nVideo:\n\nFormat                           : MPEG-4 Visual\nFormat profile                   : Simple@L3\nFormat settings, BVOP            : No\nFormat settings, QPel            : No\nFormat settings, GMC             : No warppoints\nFormat settings, Matrix          : Default (H.263)\nCodec ID                         : XVID\nCodec ID/Hint                    : XviD\nDuration                         : 1h 45mn\nBit rate                         : 1 717 Kbps\nWidth                            : 720 pixels\nHeight                           : 304 pixels\nDisplay aspect ratio             : 2.35:1\nFrame rate                       : 25.000 fps\nColor space                      : YUV\nChroma subsampling               : 4:2:0\nBit depth                        : 8 bits\nScan type                        : Progressive\nBits/(Pixel*Frame)               : 0.314\nStream size                      : 1.26 GiB (81%)\nWriting library                  : XviD 1.1.2 (UTC 2006-11-01)\n\nAudio:\n\nFormat                           : AC-3\nFormat/Info                      : Audio Coding 3\nMode extension                   : CM (complete main)\nCodec ID                         : 2000\nDuration                         : 1h 45mn\nBit rate mode                    : Constant\nBit rate                         : 384 Kbps\nChannel(s)                       : 6 channels\nChannel positions                : Front: L C R, Side: L R, LFE\nSampling rate                    : 48.0 KHz\nBit depth                        : 16 bits\nStream size                      : 289 MiB (18%)\nAlignment                        : Aligned on interleaves\nInterleave, duration             : 32 ms (0.80 video frame)\nInterleave, preload duration     : 160 ms\n\n","torrent":{"xt":"urn:btih:db2f3540b7d896b4cb5e7582aada80c413cb3fff","amp;dn":"Sucker+Punch+2011+DVDrip+English+Klam","amp;tr":["udp%3A%2F%2Ftracker.openbittorrent.com%3A80","udp%3A%2F%2Fopen.demonii.com%3A1337","udp%3A%2F%2Ftracker.coppersurfer.tk%3A6969","udp%3A%2F%2Fexodus.desync.com%3A6969"],"infoHash":"db2f3540b7d896b4cb5e7582aada80c413cb3fff","infoHashBuffer":{"type":"Buffer","data":[219,47,53,64,183,216,150,180,203,94,117,130,170,218,128,196,19,203,63,255]},"announce":[],"urlList":[]}}